<svg width="52" height="50" viewBox="0 0 52 50" fill="none" xmlns="http://www.w3.org/2000/svg">
<path d="M3.62823 12.2742C4.61252 10.3972 7.19269 7.52926 8.79391 6.17609C13.405 2.31529 19.5503 -0.186978 25.613 0.0109481C26.1973 0.0196244 26.7898 -0.00576013 27.3733 0.0224284C34.3769 0.360691 40.9827 3.77075 45.5209 9.07679C46.2748 9.95836 47.8733 12.0994 48.3102 13.1239C48.4382 13.2715 48.883 14.1585 48.9876 14.3743C50.344 17.1679 51.145 20.28 51.3757 23.3741C51.4234 24.0099 51.3772 24.8723 51.3768 25.5345C51.3764 26.0704 51.3867 26.9482 51.3234 27.4667C50.7271 32.3569 48.7205 37.1773 45.4663 40.8941C44.382 42.1326 42.7187 43.7728 41.399 44.7537C37.4932 47.6582 32.3806 49.7049 27.5089 49.9731C26.3238 50.0383 23.9577 49.9792 22.8647 49.8519C17.5645 49.2362 12.2491 46.8501 8.30197 43.2742C4.80984 40.1106 2.28552 36.2259 0.990814 31.6895C0.444356 29.775 0.113936 28.1467 0.0304311 26.1539C-0.179885 21.9745 0.702751 17.8125 2.59135 14.0782C2.78969 13.6886 3.37866 12.5446 3.62823 12.2742Z" fill="#FBFBFF"/>
<path d="M48.3102 13.124C48.4382 13.2716 48.883 14.1586 48.9876 14.3744C50.344 17.168 51.145 20.2801 51.3757 23.3742C51.4234 24.01 51.3772 24.8725 51.3768 25.5346C51.3764 26.0705 51.3867 26.9483 51.3234 27.4668C50.7271 32.357 48.7205 37.1774 45.4663 40.8942C44.382 42.1327 42.7187 43.7729 41.399 44.7538C37.4932 47.6583 32.3806 49.705 27.5089 49.9733C26.3238 50.0384 23.9577 49.9793 22.8647 49.852C17.5645 49.2363 12.2491 46.8502 8.30197 43.2743C4.80984 40.1107 2.28552 36.226 0.990814 31.6896C0.444356 29.7751 0.113936 28.1468 0.0304311 26.154C-0.179885 21.9746 0.702751 17.8126 2.59135 14.0783C2.78969 13.6887 3.37866 12.5447 3.62823 12.2743C3.628 12.3128 3.62774 12.3514 3.62751 12.3899C1.45903 15.8914 0.182778 20.1007 0.107722 24.2172C0.102038 24.5304 0.13879 25.3004 0.316484 25.5351L0.393776 25.5541C0.41397 24.1563 0.431474 22.7976 0.687293 21.4205C0.740223 21.1355 0.758598 20.7778 0.820583 20.5127L0.856046 20.5246C0.727038 21.366 0.589353 22.2462 0.521041 23.0938C-0.0672828 30.3936 2.95981 37.6139 8.28189 42.5863C12.1231 46.175 16.969 48.5043 22.1707 49.2629C28.7725 50.1957 35.4764 48.4956 40.8364 44.5299C46.2097 40.6165 49.7908 34.7132 50.7801 28.1398C51.0779 26.1934 51.1067 24.2153 50.8665 22.2609C50.8271 21.923 50.3834 19.4465 50.3929 19.4089C50.4327 19.4979 50.4054 19.4679 50.4221 19.5339C50.9729 21.6995 51.148 23.957 51.0305 26.1822L51.0858 26.2263C51.1753 26.1838 51.2006 26.1697 51.3003 26.1459C51.3226 25.0449 51.3533 23.7965 51.2419 22.7104C50.9116 19.4947 49.9909 16.2645 48.4026 13.4413C48.3435 13.3366 48.231 13.2104 48.3102 13.124Z" fill="#FBFBFF"/>
<path d="M6.14181 11.5184C6.18311 11.3988 6.62821 10.8333 6.72634 10.7115C8.02518 9.06835 9.53657 7.60512 11.2209 6.3602C16.4538 2.50277 23.0085 0.890334 29.4335 1.87993C35.6589 2.78465 41.2758 6.10988 45.0627 11.1329C47.7592 14.6617 49.3702 18.8991 49.699 23.3279C49.7316 23.7633 49.832 26.8703 49.6217 27.1272C49.5535 26.9558 49.6581 26.8034 49.6638 26.6298C49.702 25.7161 49.7096 24.8015 49.6876 23.8873C49.6801 23.5845 49.5281 21.8216 49.4376 21.6134C49.2015 21.8818 49.1868 22.3126 49.2163 22.6462C49.341 24.0675 49.4186 25.9131 49.2019 27.3297L49.136 27.3506C48.9492 28.7019 48.7378 29.9617 48.3172 31.2676C48.2187 31.5742 48.0914 32.0476 47.9531 32.3296C47.6027 33.4033 47.0954 34.4623 46.5581 35.4538C44.2443 39.7146 40.6749 43.1602 36.3348 45.322C30.7903 48.1144 24.366 48.6001 18.4647 46.6727C16.9477 46.1741 15.4832 45.5281 14.0922 44.7439C13.8234 44.5942 13.2967 44.3006 13.0917 44.0914C12.9323 44.1994 11.4722 44.6787 11.1728 44.7818C10.499 43.6739 9.86422 42.2194 9.1151 41.1188C8.80245 40.6596 8.04348 39.898 7.63781 39.4275C7.98593 39.1513 8.37341 38.7515 8.72232 38.4537C9.12673 38.1086 9.51096 37.8157 9.93424 37.4956L6.17807 37.5005C6.08335 37.3792 5.9859 37.2269 5.90137 37.0962C4.81736 35.4223 3.91142 33.6033 3.30181 31.7018C3.195 31.3687 3.09585 31.0365 2.99014 30.7047C2.57182 30.2565 2.0911 26.0045 2.12891 25.2015C2.15286 24.693 2.17566 23.9489 2.18669 23.4211C2.19214 23.1593 2.14513 23.2462 2.26845 22.988L2.29259 22.9383L2.20696 23.033C2.03256 23.0673 2.05904 22.8421 1.91549 22.7499C1.82891 23.0493 1.79804 23.7372 1.78523 24.0632C1.70241 26.0973 1.91094 28.1327 2.40443 30.1077C2.42864 30.2059 2.59982 30.9456 2.59637 30.9761C2.16517 30.2697 1.76867 26.6643 1.73442 25.7391C1.58329 21.4635 2.64578 17.2325 4.79895 13.5356C5.08068 13.0517 5.76316 11.9267 6.14181 11.5184Z" fill="url(#paint0_linear_56_1854)"/>
<path d="M30.9428 2.70569C31.0849 2.7271 31.6737 2.85152 31.8017 2.90816C31.74 2.95063 31.7434 2.94662 31.6684 2.95734L31.6093 3.02141C33.5143 4.23655 35.3583 5.43823 37.3224 6.56782C37.4504 7.08548 37.5626 7.65278 37.6524 8.17915C37.8373 9.26324 38.1169 10.3713 38.2654 11.4584C36.3972 12.435 35.2298 13.1348 32.9638 12.4899C32.2969 12.3001 31.3554 11.7815 30.8038 11.6701C29.6698 11.441 28.5513 12.0588 27.3048 11.9677C27.1499 11.9191 27.0135 11.8609 26.8638 11.7991C26.5804 11.5394 26.494 11.3463 26.4091 10.9861C25.7651 10.4578 25.4733 10.4832 24.8209 10.2333L24.7663 10.212L24.6993 10.24C24.3014 10.0524 23.3319 10.2007 22.8834 10.2862C22.7198 10.1144 22.6847 9.96814 22.6149 9.74737C22.7812 9.09134 24.2321 5.54413 24.5742 5.10369C24.7269 4.90705 24.8993 4.79357 25.124 4.69071C25.8302 4.36749 26.6334 4.19029 27.3685 3.93629C28.2679 3.62549 29.8998 2.90365 30.7651 2.78775C30.825 2.77449 30.886 2.73566 30.9428 2.70569Z" fill="#FBFBFF"/>
<path d="M26.334 7.19573C26.8141 6.93832 28.7664 6.50302 29.3541 6.40607C30.0887 7.08956 31.3458 8.12208 31.954 8.79099C31.738 8.98521 31.4557 9.20359 31.1572 9.23894C29.7042 9.41091 26.6591 8.83623 26.4091 10.9861C25.765 10.4578 25.4732 10.4832 24.8208 10.2333L24.7662 10.2119C25.3891 9.26675 25.8764 8.22809 26.334 7.19573Z" fill="url(#paint1_linear_56_1854)"/>
<path d="M30.9426 2.70569C31.0847 2.7271 31.6735 2.85152 31.8015 2.90816C31.7398 2.95063 31.7432 2.94662 31.6682 2.95734L31.6091 3.02141C31.2419 2.82466 31.1775 2.79931 30.7649 2.78775C30.8248 2.77449 30.8858 2.73566 30.9426 2.70569Z" fill="#0F0B51"/>
<path d="M43.5621 10.1057C43.9232 10.4785 44.2005 10.8851 44.5343 11.2725C44.734 11.3339 44.889 11.2358 45.0629 11.1329C47.7593 14.6618 49.3703 18.8991 49.6992 23.328C49.7318 23.7633 49.8322 26.8703 49.6219 27.1272C49.5537 26.9558 49.6583 26.8034 49.664 26.6298C49.7022 25.7162 49.7098 24.8015 49.6878 23.8873C49.6803 23.5845 49.5283 21.8217 49.4378 21.6135C49.2017 21.8819 49.187 22.3127 49.2165 22.6462C49.3412 24.0676 49.4188 25.9132 49.2021 27.3297L49.1362 27.3507C48.9494 28.7019 48.738 29.9617 48.3174 31.2676C48.2189 31.5742 48.0916 32.0476 47.9533 32.3296C47.6029 33.4033 47.0955 34.4623 46.5583 35.4538C44.2445 39.7147 40.6751 43.1602 36.335 45.3221C30.7905 48.1144 24.3662 48.6001 18.4649 46.6728C16.9479 46.1742 15.4834 45.5282 14.0924 44.7439C13.8236 44.5942 13.2969 44.3006 13.0919 44.0915C13.3596 44.0506 14.8322 44.6136 15.1558 44.7288C16.1387 45.0894 17.1319 45.4217 18.1341 45.7248C24.2143 47.537 30.7651 47.1009 36.3839 44.0589C41.6545 41.2147 45.5831 36.3976 47.3092 30.6625C48.8861 25.3617 48.3549 20.1738 46.1249 15.1427C45.7195 14.2283 45.2504 13.48 44.7851 12.6206C44.7749 12.39 44.0558 11.4176 43.8762 11.1718C44.0918 11.3168 44.2145 11.4004 44.4468 11.5113C44.3555 11.1463 43.4519 10.5509 43.5621 10.1057Z" fill="#EBA000"/>
<path d="M43.562 10.1057C43.9231 10.4785 44.2004 10.8851 44.5342 11.2725C44.7339 11.3339 44.8888 11.2358 45.0628 11.1329C47.7592 14.6618 49.3702 18.8991 49.6991 23.328C49.7317 23.7633 49.8321 26.8703 49.6218 27.1272C49.5536 26.9558 49.6582 26.8034 49.6639 26.6298C49.7021 25.7162 49.7097 24.8015 49.6877 23.8873C49.6802 23.5845 49.5282 21.8217 49.4377 21.6135C49.2016 21.8819 49.1869 22.3127 49.2164 22.6462C49.3411 24.0676 49.4187 25.9132 49.202 27.3297L49.1361 27.3507C48.9493 28.7019 48.7379 29.9617 48.3173 31.2676C48.2188 31.5742 48.0915 32.0476 47.9532 32.3296L47.91 32.3352C48.5875 30.2894 49.0345 28.6347 49.1277 26.4547C49.138 26.2109 49.227 25.6006 49.1387 25.4059C49.1156 25.8858 49.0793 27.0782 48.9758 27.4979C48.9728 27.0027 48.8656 26.6888 48.8807 26.1874C48.8906 25.8609 49.0739 25.1409 49.0565 24.878L48.9929 24.9225L48.9724 24.8979C49.0349 24.6511 49.0258 24.4643 49.0126 24.2137L49.0039 24.2643C48.9785 24.0079 48.9951 23.8216 48.9997 23.5711C48.9618 23.4192 48.8182 23.331 48.8053 23.17C48.7205 22.1336 48.4196 21.1174 48.3245 20.0844C48.312 19.9492 48.0873 19.6548 48.0627 19.536C47.9919 19.1983 47.9748 18.8227 47.9581 18.4777C47.9134 18.4907 47.8934 18.5112 47.8574 18.5393C47.7331 18.1583 47.6971 17.9582 47.6225 17.5992C47.5611 17.4712 47.1352 16.8872 47.1329 16.7931C47.117 16.1148 46.9124 16.0542 46.54 15.4815C46.7556 15.3379 46.1926 14.9261 46.3142 14.6704C46.3365 14.6239 46.3365 14.5119 46.3358 14.4611C46.2183 14.429 46.2244 14.4273 46.1058 14.4483L46.0702 14.5259L46.0334 14.5167C45.9736 14.3094 45.8955 13.7578 45.6379 13.6832C45.3996 13.6141 45.525 13.2702 45.406 13.1171C45.2609 12.9303 45.076 12.8397 44.9779 12.6205C45.0275 11.9032 44.4842 11.9616 44.2963 11.5534C44.3554 11.5472 44.3921 11.5351 44.4467 11.5113C44.3554 11.1463 43.4518 10.5509 43.562 10.1057Z" fill="#EBA000"/>
<path d="M45.0628 11.1329C47.7593 14.6618 49.3703 18.8991 49.6992 23.328C49.7318 23.7634 49.8322 26.8703 49.6219 27.1273C49.5537 26.9559 49.6583 26.8035 49.6639 26.6299C49.7022 25.7162 49.7098 24.8015 49.6878 23.8873C49.6802 23.5845 49.5283 21.8217 49.4378 21.6135C49.2017 21.8819 49.1869 22.3127 49.2165 22.6463C49.3411 24.0676 49.4188 25.9132 49.2021 27.3298L49.1362 27.3507C49.1282 27.15 49.2093 26.4153 49.2244 26.1469C49.2638 25.3889 49.2673 24.6294 49.2339 23.871C49.0289 19.2723 47.302 14.9255 44.5343 11.2725C44.734 11.334 44.8889 11.2359 45.0628 11.1329Z" fill="#FBFBFF"/>
<path d="M22.8832 10.2861C23.3316 10.2005 24.3012 10.0523 24.699 10.2399L24.7661 10.2118L24.8206 10.2331C25.473 10.483 25.7648 10.4576 26.4089 10.9859C26.4937 11.3461 26.5801 11.5392 26.8635 11.799C27.0132 11.8608 27.1496 11.9189 27.3045 11.9675C28.4382 13.8554 27.9051 16.2401 25.9804 17.3527C25.7746 17.4709 25.5583 17.569 25.334 17.6455C24.7263 17.9267 23.8617 17.9569 23.2127 17.8313C22.1811 17.6216 21.274 17.0138 20.6878 16.1396C20.348 15.6307 19.9354 14.6021 20.0595 13.9958C19.9575 12.3265 21.3129 10.7237 22.8832 10.2861Z" fill="#EBA000"/>
<path d="M20.0595 13.996C20.2192 14.2213 19.9452 14.3844 20.2671 14.5885C20.4907 14.5771 20.4738 14.2374 20.4905 14.0517C20.5316 14.2842 20.5058 14.5439 20.5528 14.7558C20.6211 15.0636 20.7832 15.3993 20.9258 15.6799C21.4323 16.6766 22.5696 17.3802 23.6787 17.4462C23.9246 17.4608 24.1792 17.4352 24.43 17.4615C24.1409 17.5034 23.3506 17.4154 23.2426 17.4677C23.3502 17.6054 23.3479 17.7901 23.5093 17.8112C24.1318 17.8928 24.7312 17.7111 25.334 17.6457C24.7263 17.9269 23.8617 17.9571 23.2127 17.8315C22.1811 17.6218 21.274 17.014 20.6878 16.1398C20.348 15.6309 19.9354 14.6023 20.0595 13.996Z" fill="#EBA000"/>
<path d="M24.6992 10.2399L24.7663 10.2118L24.8209 10.2331C25.4733 10.483 25.765 10.4576 26.4091 10.9859C26.494 11.3461 26.5804 11.5392 26.8638 11.799L26.7471 11.8016L26.7206 11.8597C26.7933 12.1111 26.9846 12.2957 27.0828 12.5223C27.4196 13.2997 27.5211 14.1687 27.2499 14.9712C27.3268 13.3741 27.2305 12.379 25.8605 11.3207L25.8768 11.2688C25.8207 11.007 25.3729 10.9986 25.2517 10.7882C25.2721 10.7444 25.2797 10.6023 25.285 10.5452C25.1501 10.2774 24.8785 10.4303 24.6992 10.2399Z" fill="#EBA000"/>
<path d="M20.6311 13.4418C20.6481 13.2332 20.6613 13.0598 20.7251 12.8592C20.9872 12.0546 21.562 11.3895 22.32 11.0136C23.2015 10.5707 24.3181 10.4846 25.2516 10.7884C25.3729 10.9987 25.8207 11.0072 25.8768 11.269L25.8605 11.3209C24.9421 10.8016 24.1237 10.5741 23.0772 10.8629C22.5892 10.9976 22.317 11.1361 21.9846 11.5185C21.9783 11.5996 21.9717 11.6344 21.9563 11.7124C21.3531 11.3901 20.7628 13.0784 20.6311 13.4418Z" fill="#EBA000"/>
<path d="M22.8173 12.1326C23.6799 12.1258 24.5858 12.1063 25.444 12.1315L25.253 12.535C25.0269 12.5447 24.7783 12.5421 24.5498 12.5443C24.6537 12.7613 24.6904 12.84 24.7499 13.0705C24.9814 13.0677 25.2224 13.0745 25.4546 13.0776C25.4 13.2055 25.3387 13.3348 25.2807 13.4614L24.7707 13.4554C24.4896 14.1751 24.1899 14.3644 23.4515 14.5149C23.661 14.7957 24.756 16.008 24.8109 16.2072L24.7272 16.2377C24.551 16.2485 24.3805 16.2438 24.2043 16.2416C23.7447 15.7164 23.242 15.1693 22.8292 14.6108C22.7258 14.4708 22.7445 14.3441 22.7457 14.167C22.8071 14.1672 22.8685 14.1669 22.9299 14.1663C23.3185 14.1619 24.1475 14.0252 24.1346 13.5063C24.0319 13.4117 22.9356 13.4578 22.6775 13.4508L22.854 13.0521L24.1945 13.0679C23.7898 12.4344 23.3488 12.5364 22.6807 12.5395L22.8173 12.1326Z" fill="#FBFBFF"/>
<path d="M20.6393 13.6313C20.6844 13.7895 20.6707 14.1303 20.6705 14.311C21.3194 14.9057 21.9319 15.6115 22.6276 16.1245C23.1461 16.507 23.3913 16.716 23.8054 17.213C23.9948 17.2795 24.4889 17.2231 24.7196 17.2346C24.5836 17.3026 23.8535 17.2823 23.6678 17.2647C21.7828 17.0853 20.5002 15.4675 20.6393 13.6313Z" fill="#EBA000"/>
<path d="M6.14204 11.5184C6.18334 11.3988 6.62845 10.8333 6.72658 10.7115C8.02541 9.06835 9.5368 7.60512 11.2211 6.3602C16.454 2.50277 23.0087 0.890334 29.4338 1.87993C35.6591 2.78465 41.276 6.10988 45.0629 11.1329C44.889 11.2358 44.734 11.3339 44.5344 11.2724C44.2006 10.8851 43.9232 10.4785 43.5622 10.1057C43.475 9.95693 43.0132 9.48735 42.8764 9.34538C41.5784 8.00442 40.1276 6.81978 38.5545 5.81549C38.323 5.66784 37.821 5.34606 37.5656 5.2929C36.2032 4.41451 34.4005 3.66698 32.8528 3.19433C32.5353 3.09738 32.1249 2.95234 31.8018 2.90813C31.6737 2.85148 31.0849 2.72706 30.9428 2.70565C29.9358 2.44824 28.8541 2.31435 27.8175 2.22436C22.8172 1.78434 17.8047 2.92328 13.4854 5.48082C11.2675 6.80947 9.28109 8.49094 7.6044 10.459C7.20931 10.9278 6.83804 11.3842 6.49432 11.8924C6.43507 11.98 6.09953 12.4674 6.03508 12.5205C5.85288 12.5324 5.89316 12.7673 5.70292 12.8959C5.13441 12.6971 6.05354 11.8486 6.14204 11.5184Z" fill="#FBFBFF"/>
<path d="M2.99014 30.7047C2.57182 30.2564 2.0911 26.0044 2.12891 25.2015C2.15286 24.693 2.17566 23.9488 2.18669 23.4211C2.19214 23.1593 2.14513 23.2462 2.26845 22.9879L2.29259 22.9383L2.20696 23.0329C2.03256 23.0672 2.05904 22.8421 1.91549 22.7499C1.82891 23.0493 1.79804 23.7371 1.78523 24.0632C1.70241 26.0972 1.91094 28.1326 2.40443 30.1077C2.42864 30.2059 2.59982 30.9456 2.59637 30.976C2.16517 30.2697 1.76867 26.6643 1.73442 25.7391C1.58329 21.4635 2.64578 17.2325 4.79895 13.5355C5.08068 13.0517 5.76316 11.9267 6.14181 11.5184C6.0533 11.8486 5.13418 12.6971 5.70269 12.8959C5.89292 12.7672 5.85265 12.5324 6.03485 12.5204C5.58512 13.2286 5.11061 13.9848 4.72526 14.7319C2.41102 19.2189 1.61356 24.4708 2.6842 29.4204C2.75872 29.765 2.94665 30.3927 2.99014 30.7047Z" fill="#FBFBFF"/>
<path d="M37.5655 5.29297C37.8208 5.34613 38.3228 5.66791 38.5543 5.81556C40.1274 6.81985 41.5782 8.00449 42.8762 9.34545C43.013 9.48742 43.4748 9.957 43.562 10.1057C43.4517 10.5509 44.3554 11.1464 44.4467 11.5113C44.2144 11.4004 44.0917 11.3168 43.8761 11.1718C44.0557 11.4177 44.7748 12.39 44.785 12.6206C44.6028 12.4163 44.1455 11.6649 43.9412 11.3789C43.3521 10.5534 42.708 9.76828 42.0139 9.02882C41.1178 8.08735 40.1517 7.21517 39.1238 6.41968C38.707 6.10165 37.9402 5.63313 37.5973 5.32233L37.5655 5.29297Z" fill="#EBA000"/>
<path d="M15.2744 35.8622C16.8851 35.6553 19.5749 37.1932 21.2778 37.5368C22.3086 37.8138 23.5717 37.6819 24.5348 38.1366C25.654 38.6651 25.2743 40.422 24.0941 40.6107C22.521 40.8573 20.8964 40.3008 19.3381 40.1045C19.0038 40.0624 18.2649 39.82 18.0912 40.214L18.1386 40.2996C18.4936 40.5432 19.8039 40.6698 20.2901 40.7456C21.9579 41.007 24.5988 41.9383 25.6123 40.0223C25.6994 39.8578 25.7733 39.54 25.8226 39.3513C26.4996 39.0065 27.1183 38.6962 27.7753 38.3003C28.5251 37.8483 29.4045 37.1618 30.1967 36.8291C31.0352 36.4771 32.5155 36.8257 32.3473 37.9994C32.262 38.5939 31.8483 38.8641 31.4163 39.2244C29.9944 40.3799 28.6846 41.7136 27.1577 42.7351C26.1973 43.3773 25.0788 43.8637 24.0502 44.3964C23.1916 44.8412 22.2129 45.3815 21.2502 45.5554C20.5247 45.6865 16.6917 44.3525 15.7997 44.0316C15.1311 43.7914 13.9803 43.2772 13.3111 43.2795C12.7798 43.281 12.1106 43.6069 11.6093 43.78C10.723 42.3884 9.80822 40.6103 8.81317 39.3471C10.4641 37.935 13.0439 36.0698 15.2744 35.8622Z" fill="#EBA000"/>
<path d="M18.8188 19.1156C21.0858 18.9206 22.8542 19.4899 24.6495 20.8514C24.243 21.5759 23.4011 22.761 22.9113 23.4961C21.9242 22.7444 21.0985 22.2327 19.7982 22.152C19.1863 22.1306 18.3754 22.1921 17.8964 22.612C17.2555 23.1739 17.2707 24.1367 17.9951 24.6236C18.4118 24.9036 18.905 25.0567 19.3844 25.2137C21.0236 25.7505 22.8529 26.1668 24.0755 27.4783C24.9094 28.3791 25.1189 29.433 25.0629 30.6214C25.006 31.824 24.4904 32.8865 23.5799 33.6787C22.2237 34.8585 20.5296 35.14 18.8016 35.0495C16.9638 35.0438 14.7256 34.1174 13.3978 32.8364C13.942 31.9591 14.5861 31.0754 15.1521 30.1936C16.2479 31.0253 17.1063 31.6729 18.5582 31.9091C19.7139 32.0971 21.608 31.9728 21.5249 30.3297C21.4686 29.216 20.0016 28.8535 19.134 28.5721C17.8686 28.1616 16.4494 27.794 15.3868 26.9392C13.5621 25.5266 13.4825 22.7 14.9168 20.9871C15.9296 19.7774 17.2954 19.2676 18.8188 19.1156Z" fill="#FBFBFF"/>
<path d="M27.1115 19.1674C30.5013 19.1441 34.0579 19.1257 37.442 19.1738C37.3227 20.068 37.0203 21.3878 36.8264 22.2908L30.6313 22.2908L30.637 25.5265L33.7631 25.5182C34.5069 25.5171 35.3324 25.4993 36.0697 25.5358C36.0023 26.0836 35.7795 27.0336 35.6628 27.6179L35.4571 28.5712C33.8673 28.5453 32.2199 28.5663 30.6275 28.5706L30.6343 34.8138C29.4613 34.8237 28.2879 34.8256 27.1145 34.8195L27.1115 19.1674Z" fill="#EBA000"/>
<path d="M35.1022 19.5349C35.733 19.5313 36.3638 19.5308 36.9947 19.5335C36.8784 20.2837 36.6745 21.172 36.5184 21.9254C35.9997 21.9397 35.4621 21.9287 34.9419 21.9247L34.8491 21.9206C35.0522 21.8604 36.174 21.957 36.4866 21.8152C36.4536 21.7432 36.2695 21.3415 36.2672 21.291C36.2403 20.7637 36.2532 20.1138 36.2578 19.5927C35.8069 19.594 35.3303 19.565 34.8957 19.5669C34.9995 19.5521 34.976 19.5362 35.1022 19.5349Z" fill="#EBA000"/>
<path d="M38.0763 6.99036C38.4317 7.12258 40.4511 8.70266 40.8183 9.01667C40.9107 9.31398 41.4915 11.8414 41.479 12.0277L41.3847 12.0876C40.5364 12.2866 39.9533 12.3259 39.0993 12.2361C38.8053 10.5798 38.4332 8.63052 38.0763 6.99036Z" fill="#FBFBFF"/>
<defs>
<linearGradient id="paint0_linear_56_1854" x1="25.736" y1="1.59515" x2="25.736" y2="47.8342" gradientUnits="userSpaceOnUse">
<stop stop-color="#0F0B51"/>
<stop offset="0.5" stop-color="#161075"/>
<stop offset="1" stop-color="#0C093F"/>
</linearGradient>
<linearGradient id="paint1_linear_56_1854" x1="28.3601" y1="6.40607" x2="28.3601" y2="10.9861" gradientUnits="userSpaceOnUse">
<stop stop-color="#0F0B51"/>
<stop offset="0.5" stop-color="#161075"/>
<stop offset="1" stop-color="#0C093F"/>
</linearGradient>
</defs>
</svg>
